<?xml version="1.0" encoding="UTF-8"?>
<svg width="144px" height="144px" viewBox="0 0 144 144" version="1.1" xmlns="http://www.w3.org/2000/svg" xmlns:xlink="http://www.w3.org/1999/xlink">
    <!-- Generator: Sketch 57.1 (83088) - https://sketch.com -->
    <title>Group 5</title>
    <desc>Created with Sketch.</desc>
    <defs>
        <rect id="path-1" x="0" y="0" width="144" height="144" rx="18"></rect>
        <polygon id="path-3" points="0.434415326 0.381623704 26.2046108 0.381623704 26.2046108 12.4915346 0.434415326 12.4915346 0.434415326 0.381623704"></polygon>
    </defs>
    <g id="After-review-with-Kendrick" stroke="none" stroke-width="1" fill="none" fill-rule="evenodd">
        <g id="A6-Copy-6" transform="translate(-528.000000, -808.000000)">
            <g id="Group-6" transform="translate(100.000000, 50.000000)">
                <g id="Group-5" transform="translate(150.000000, 328.000000)">
                    <g transform="translate(278.000000, 430.000000)">
                        <g id="Rectangle-10">
                            <mask id="mask-2" fill="white">
                                <use xlink:href="#path-1"></use>
                            </mask>
                            <use id="Mask" fill="#BCA1A1" opacity="0.416100543" xlink:href="#path-1"></use>
                            <rect fill="#FFFFFF" mask="url(#mask-2)" x="0" y="0" width="144" height="144"></rect>
                        </g>
                        <g id="App-icon" transform="translate(9.843750, 52.031250)">
                            <g id="Singpass-logo">
                                <path d="M123.183661,14.6310708 C122.364085,14.137048 120.561199,13.5577263 119.086681,13.5728313 C115.560309,13.6079283 113.280122,15.3014668 113.280122,18.5468232 C113.280122,21.6615657 116.120598,22.4492476 118.909039,23.6625356 C121.260103,24.6856781 122.399524,26.2730372 122.399524,28.1429489 C122.399524,29.8009462 120.440079,31.4051874 118.409757,30.930268 C114.491765,30.0128606 113.997867,26.1957351 113.85028,25.9909289 L113.387335,26.2379403 L113.571706,30.294969 C113.60849,30.9507042 115.91649,31.6708579 118.445645,31.6708579 C121.431465,31.6708579 124.32353,30.0146377 124.32353,26.4494104 C124.32353,24.1561141 122.43586,22.3572848 119.870817,21.3341423 C117.773656,20.4975911 115.453544,20.0639884 115.453544,17.2064754 C115.453544,15.280142 117.002079,14.1632596 118.69551,14.2427831 C120.19156,14.3134212 122.277956,16.567178 122.720266,18.3704499 C123.112335,18.6880995 123.397638,18.2296179 123.397638,18.2296179 L123.183661,14.6310708" id="Fill-11" fill="#231F20"></path>
                                <path d="M30.45613,13.3618054 L32.9754159,13.3618054 L32.9754159,17.59965 L33.0494334,17.59965 C33.5312199,16.0971455 34.6423793,12.9379765 38.5697917,12.9379765 C41.5704156,12.9379765 43.0897926,15.5578077 43.0897926,18.6010235 L43.0897926,31.7006237 L40.5700581,31.7006237 L40.5700581,21.5291747 C40.5700581,18.3700057 40.5700581,15.5578077 37.9772033,15.5578077 C34.6423793,15.5578077 32.9754159,20.8356769 32.9754159,24.1494501 L32.9754159,31.7006237 L30.45613,31.7006237 L30.45613,13.3618054 Z" id="Fill-1" fill="#ED1C2E"></path>
                                <path d="M53.77693,29.5041771 C56.8147869,29.5041771 58.0004123,25.2663325 58.0004123,22.1840214 C58.0004123,19.3331724 56.8520199,15.1339788 53.8513961,15.1339788 C51.183178,15.1339788 50.1832691,18.7556278 50.1832691,22.6851524 C50.1832691,25.4973504 50.7763062,29.5041771 53.77693,29.5041771 L53.77693,29.5041771 Z M60.5201468,31.7388305 C60.5201468,36.9398418 58.1116629,39.7138329 53.0363066,39.7138329 C50.2940711,39.7138329 48.8496087,39.2127019 48.2565717,39.097193 L48.2565717,36.4387108 C48.5158572,36.5542197 50.2572866,37.5178307 52.665322,37.5178307 C57.2225559,37.5178307 58.0004123,34.7056327 58.0004123,31.4305105 L58.0004123,28.1944837 L57.9263949,28.1944837 C57.5563075,29.4273193 56.2962159,31.7001794 53.258359,31.7001794 C48.6271077,31.7001794 47.2934472,27.1931102 47.2934472,22.6465013 C47.2934472,17.75381 48.9608592,12.9379765 53.3323765,12.9379765 C56.3334489,12.9379765 57.6303249,15.211281 57.9263949,16.3668144 L58.0004123,16.3668144 L58.0004123,13.3618054 L60.5201468,13.3618054 L60.5201468,31.7388305 Z" id="Fill-3" fill="#ED1C2E"></path>
                                <path d="M9.85558464,17.456108 C12.468626,18.9701634 15.3055142,20.6010605 15.3055142,24.8326854 C15.3055142,30.4228729 11.0501819,32.3643113 6.23411115,32.3643113 C3.47213762,32.3643113 0.970795341,31.7045776 0.298806329,31.5490849 L0.298806329,28.4432277 C0.858647642,28.6764669 3.43490458,29.8408856 6.57010565,29.8408856 C9.74343694,29.8408856 12.1326315,28.2104328 12.1326315,25.2596241 C12.1326315,22.2315133 9.96773234,21.1057456 7.8396176,19.8631362 L5.56257072,18.5436689 C3.17337615,17.1455667 4.48590796e-05,15.6701624 4.48590796e-05,11.5940302 C4.48590796e-05,6.97411766 3.54660369,4.72213797 8.28731122,4.72213797 C10.7514205,4.72213797 12.7673875,5.2268231 13.6632233,5.42096694 L13.6632233,8.41042667 C13.0289159,8.13853644 10.7891021,7.24600789 8.02623137,7.24600789 C5.07719548,7.24600789 3.17337615,8.83736541 3.17337615,11.32214 C3.17337615,13.6900729 5.45042303,14.9331266 7.46639006,16.0975454 L9.85558464,17.456108 Z" id="Fill-5" fill="#ED1C2E"></path>
                                <path d="M70.0099057,5.21145153 C70.0099057,4.50595858 72.4726692,4.77074057 74.391292,4.77074057 C78.0962034,4.77074057 80.4827064,8.73936054 80.4827064,11.4804761 C80.4827064,15.0541444 78.356386,17.076439 76.7782436,17.5589109 C74.3558533,18.2999451 72.7525898,17.8414635 72.1469922,17.6295491 C72.2537568,18.5114153 73.6789298,19.2879906 77.1344247,19.2879906 C77.9800184,19.2879906 79.7909794,18.4971988 80.9290542,17.7303972 C82.7503329,16.5033371 84.1162918,13.8577385 84.1162918,11.7106054 C84.1162918,9.33334295 83.3788086,7.02716291 81.4090464,5.42336597 C79.8057829,4.1176709 77.1326303,3.65918934 74.4980566,3.65918934 C71.4413589,3.65918934 64.505248,3.77425399 62.8140607,3.92752545 C62.3910396,3.96573224 62.3152278,4.43532043 65.5571935,5.07017523 C67.0245339,5.35805901 66.9460306,6.6673082 66.9460306,8.31597591 L66.9460306,27.6490594 C66.9460306,30.1182847 66.4117589,29.7304413 64.369325,30.0480909 C64.176431,30.0778566 63.9786024,30.0378728 63.9786024,30.3062089 C63.9786024,30.4976871 64.0436481,30.8810879 64.2387851,30.8810879 C65.9950181,30.8810879 68.4192027,30.824222 69.2975435,30.824222 C71.1838678,30.824222 72.6399935,30.8810879 74.0709982,30.8810879 C74.3307322,30.8810879 74.5927093,30.4101669 74.4626179,30.294658 C74.3648251,30.2182444 73.3680564,29.9978889 73.1087709,29.9774527 C69.5110727,29.6953444 70.0099057,29.1777756 70.0099057,27.2607718 L70.0099057,5.21145153" id="Fill-7" fill="#231F20"></path>
                                <path d="M110.31229,14.6310708 C109.492714,14.137048 107.689828,13.5577263 106.215759,13.5728313 C102.688938,13.6079283 100.409199,15.3014668 100.409199,18.5468232 C100.409199,21.6615657 103.249676,22.4492476 106.037668,23.6625356 C108.388732,24.6856781 109.528602,26.2730372 109.528602,28.1429489 C109.528602,29.8009462 107.568708,31.4051874 105.538835,30.930268 C101.620394,30.0128606 101.126496,26.1957351 100.97891,25.9909289 L100.515964,26.2379403 L100.700335,30.294969 C100.737119,30.9507042 103.045119,31.6708579 105.574274,31.6708579 C108.559645,31.6708579 111.452159,30.0146377 111.452159,26.4494104 C111.452159,24.1561141 109.56404,22.3572848 106.999447,21.3341423 C104.901836,20.4975911 102.582173,20.0639884 102.582173,17.2064754 C102.582173,15.280142 104.13026,14.1632596 105.82369,14.2427831 C107.320189,14.3134212 109.406585,16.567178 109.849344,18.3704499 C110.240964,18.6880995 110.526267,18.2296179 110.526267,18.2296179 L110.31229,14.6310708" id="Fill-9" fill="#231F20"></path>
                                <path d="M93.3103396,27.2802306 C93.3103396,27.2802306 91.5177708,29.0954977 89.5587748,29.7307967 C88.136742,30.1910554 87.4571269,28.6498998 87.4571269,27.5432355 C87.4571269,26.2379847 88.4879886,25.003372 89.236238,24.2974348 C89.236238,24.2974348 90.4492275,22.7100757 93.2991249,21.6518363 L93.3103396,27.2802306 Z M93.4772154,20.8668199 C93.4772154,20.8668199 89.8081913,22.4981612 88.4525499,23.4862068 C85.7946494,25.4240911 84.5359037,27.4725973 84.5359037,28.70721 C84.5359037,30.5517986 85.6371941,31.4594322 87.4925656,31.4594322 C88.2053764,31.4594322 90.6632054,30.6126629 93.1923603,28.4606429 C93.6911932,29.8716288 94.0702524,31.5651673 96.5765292,31.5651673 C97.7877244,31.5651673 98.9630323,29.90717 99.248336,28.8840275 L98.820829,28.6721131 C98.341734,29.5322103 97.6329605,29.9422669 96.9327103,29.9422669 C95.6856279,29.9422669 95.9709316,27.9190837 95.9709316,27.0585423 L95.9709316,18.3704944 C95.9709316,15.0100733 93.9715625,13.5022376 90.9126218,13.5022376 C89.5233361,13.5022376 87.3144751,14.5253801 86.6021129,15.4778844 C84.6785556,17.1714229 83.7876542,19.4291781 84.001632,20.0289359 C84.001632,20.0289359 85.6403342,20.134671 86.4953483,19.464275 C86.7447648,18.758782 87.0502551,17.4450902 87.1395247,17.1723114 C87.5997788,15.7599928 89.1671551,14.6311152 90.8412959,14.7017533 C93.5292519,14.8145967 93.4417767,17.5943633 93.4772154,18.9000583 L93.4772154,20.8668199 L93.4772154,20.8668199 Z" id="Fill-14" fill="#231F20"></path>
                                <g id="Group-18" transform="translate(8.074634, 0.062641)">
                                    <mask id="mask-4" fill="white">
                                        <use xlink:href="#path-3"></use>
                                    </mask>
                                    <g id="Clip-17"></g>
                                    <path d="M3.76609917,11.3177862 C2.63834191,11.3177862 1.52807969,11.245371 0.434415326,11.1183112 C2.70249039,12.0015102 5.16973977,12.4915346 7.75451993,12.4915346 C16.0480666,12.4915346 23.1640624,7.49799505 26.2046108,0.381312719 C21.0233871,7.03062818 12.9025479,11.3177862 3.76609917,11.3177862" id="Fill-16" fill="#231F20" mask="url(#mask-4)"></path>
                                </g>
                                <path d="M22.712466,4.62639884 C22.712466,6.11157701 21.4967849,7.31553538 19.9971459,7.31553538 C18.4975069,7.31553538 17.2818258,6.11157701 17.2818258,4.62639884 C17.2818258,3.14122068 18.4975069,1.93726231 19.9971459,1.93726231 C21.4967849,1.93726231 22.712466,3.14122068 22.712466,4.62639884" id="Fill-19" fill="#231F20"></path>
                                <path d="M25.2677737,17.5502477 C25.0982064,16.7376869 24.7586232,16.0357481 24.5284961,15.6243586 C24.4670392,15.50263 24.3966104,15.3871211 24.3194528,15.2769433 C24.3037521,15.252953 24.2920888,15.2360709 24.2920888,15.2360709 C24.2920888,15.2360709 24.2898458,15.2356267 24.2898458,15.2356267 C23.7905643,14.5483486 22.9974557,14.1018622 22.1016199,14.1018622 C20.7809686,14.1018622 19.6783324,15.0690273 19.4212899,16.3556189 C19.4051406,16.4022668 19.3925801,16.4502474 19.3862998,16.5004494 C19.1996861,17.99318 19.5325404,20.6965331 20.5669908,25.7709288 C21.4368084,30.0372064 21.6723185,37.9868857 21.657515,40.410796 C21.6543749,40.9194795 21.657515,40.410796 21.6018898,41.7644717 C21.5296666,43.5148761 21.025002,48.1623331 21.6660382,46.9579305 C22.4510721,45.4843032 24.3876386,36.1005362 25.2677737,29.6649122 C26.1479089,23.228844 25.5387226,18.8483903 25.2677737,17.5502477" id="Fill-21" fill="#231F20"></path>
                            </g>
                        </g>
                    </g>
                </g>
            </g>
        </g>
    </g>
</svg>