<svg width="240" height="30" viewBox="0 0 240 30" fill="none" xmlns="http://www.w3.org/2000/svg">
    <path d="M9.65539 22.1369C15.0195 22.1369 18.2944 19.3469 18.2944 14.9927C18.2944 11.949 16.4311 9.87765 12.5774 9.03218L8.80842 8.18672C7.36858 7.84853 6.60632 7.38352 6.60632 6.53806C6.60632 5.69259 7.34035 5.14304 8.93547 5.14304C10.8835 5.14304 12.9162 6.07305 14.3137 7.34125L17.5039 2.69118C15.9794 1.33844 12.8456 0.154785 8.94958 0.154785C3.89603 0.154785 0.508178 2.64891 0.508178 6.87624C0.508178 9.97629 2.24445 12.2027 5.92875 13.0482L9.69773 13.9359C11.5611 14.3586 12.1539 14.9082 12.1539 15.6268C12.1539 16.5568 11.3917 17.0641 9.65539 17.0641C7.62267 17.0641 5.16648 16.2186 3.162 14.5277L0 19.1778C1.48219 20.5305 4.87004 22.1369 9.65539 22.1369Z" fill="#F4333D"/>
    <path d="M24.5619 7.34147C25.0452 7.34637 25.5247 7.25495 25.9722 7.07257C26.4197 6.89018 26.8262 6.6205 27.168 6.27932C27.5098 5.93813 27.78 5.5323 27.9627 5.08559C28.1454 4.63888 28.237 4.16026 28.2321 3.67778C28.2321 2.70237 27.8439 1.76691 27.1529 1.0772C26.462 0.387479 25.5249 0 24.5478 0C23.5706 0 22.6335 0.387479 21.9426 1.0772C21.2516 1.76691 20.8635 2.70237 20.8635 3.67778C20.8585 4.16267 20.951 4.64363 21.1354 5.09223C21.3199 5.54083 21.5926 5.94795 21.9374 6.28952C22.2822 6.63109 22.6921 6.90017 23.1429 7.08086C23.5937 7.26154 24.0762 7.35016 24.5619 7.34147Z" fill="black"/>
    <path d="M20.5811 21.7139H28.5425L26.8486 8.56689C25.3479 8.94731 23.7757 8.94731 22.275 8.56689L20.5811 21.7139Z" fill="black"/>
    <path d="M32.2695 21.7147H38.6218V10.3431C38.6218 7.55311 39.9769 5.83399 42.6025 5.83399C45.101 5.83399 46.4138 7.27128 46.4138 10.3572V21.7147H52.766V8.75085C52.766 3.08622 49.9287 0.155273 45.0587 0.155273C42.2637 0.155273 40.1463 1.25438 38.6218 3.41032V2.05757C38.6218 1.12756 38.0571 0.578007 37.1396 0.578007H32.2695V21.7147Z" fill="#F4333D"/>
    <path d="M73.6441 0.578007C72.7124 0.578007 72.1619 1.12756 72.1619 2.05757V3.32577C70.7221 1.16983 68.4353 0.155273 65.725 0.155273C60.6009 0.155273 56.1543 4.63625 56.1543 10.6391C56.1543 16.6419 60.6009 21.1228 65.725 21.1228C68.4353 21.1228 70.6374 20.2774 72.1619 18.3751V19.7278C72.1619 22.6024 70.2562 24.6738 66.9954 24.6738C64.5546 24.7 62.1998 23.7749 60.4315 22.0951L57.1283 26.9988C59.2457 28.9011 62.7747 30.0002 67.0095 30.0002C73.3618 30.0002 78.5282 26.8297 78.5282 18.8824V0.578007H73.6441ZM67.4189 15.5428C66.7784 15.5406 66.1447 15.4117 65.5544 15.1634C64.9641 14.9151 64.429 14.5525 63.9801 14.0965C63.5311 13.6404 63.1772 13.1001 62.9388 12.5066C62.7004 11.9131 62.5823 11.2784 62.5912 10.6391C62.5755 9.988 62.6905 9.34039 62.9292 8.73432C63.168 8.12826 63.5258 7.57598 63.9815 7.10998C64.4373 6.64398 64.9818 6.27367 65.583 6.02084C66.1842 5.76801 66.83 5.63777 67.4824 5.63777C68.1348 5.63777 68.7806 5.76801 69.3819 6.02084C69.9831 6.27367 70.5276 6.64398 70.9833 7.10998C71.4391 7.57598 71.7969 8.12826 72.0356 8.73432C72.2744 9.34039 72.3893 9.988 72.3737 10.6391C72.3861 11.29 72.2662 11.9368 72.021 12.5401C71.7759 13.1435 71.4107 13.6909 70.9475 14.1493C70.4843 14.6078 69.9328 14.9676 69.3263 15.2071C68.7198 15.4466 68.0709 15.5608 67.4189 15.5428Z" fill="#F4333D"/>
    <path d="M96.3422 0.155273C93.4625 0.155273 91.091 1.16983 89.5241 3.32577V2.05757C89.5241 1.12756 88.9595 0.578007 88.0419 0.578007H83.1719V29.493H89.5241V19.3896C91.1757 21.2919 93.4625 22.1374 96.3422 22.1374C101.847 22.1374 106.294 17.6564 106.294 11.1463C106.294 4.63625 101.847 0.155273 96.3422 0.155273ZM94.6482 16.5573C91.6415 16.5573 89.3124 14.3168 89.3124 11.1463C89.3124 7.97584 91.6415 5.73535 94.6482 5.73535C97.655 5.73535 99.8571 7.98993 99.8571 11.1463C99.8571 14.3027 97.6126 16.5573 94.6482 16.5573Z" fill="#F4333D"/>
    <path d="M127.192 0.422733C126.26 0.422733 125.709 0.972287 125.709 1.9023V3.1705C124.143 1.01456 121.774 0 118.894 0C113.389 0 108.942 4.48097 108.942 10.9911C108.942 17.5012 113.389 21.9821 118.894 21.9821C121.774 21.9821 124.143 20.9676 125.709 18.8116V21.5594H132.064V0.422733H127.192ZM120.588 16.4021C117.624 16.4021 115.379 14.1616 115.379 10.9911C115.379 7.82057 117.638 5.58008 120.588 5.58008C123.538 5.58008 125.921 7.83466 125.921 10.9911C125.921 14.1475 123.595 16.4021 120.588 16.4021Z" fill="#F4333D"/>
    <path d="M144.997 22.1374C150.361 22.1374 153.636 19.3474 153.636 14.9932C153.636 11.9495 151.773 9.87814 147.919 9.03267L144.15 8.18721C142.71 7.84902 141.948 7.38401 141.948 6.53855C141.948 5.69308 142.668 5.14353 144.277 5.14353C146.225 5.14353 148.258 6.07354 149.656 7.34174L152.832 2.69167C151.307 1.33893 148.173 0.155273 144.277 0.155273C139.238 0.155273 135.853 2.6494 135.853 6.87673C135.853 9.97678 137.589 12.2032 141.271 13.0486L145.04 13.9364C146.903 14.3591 147.496 14.9087 147.496 15.6273C147.496 16.5573 146.734 17.0646 144.997 17.0646C142.965 17.0646 140.508 16.2191 138.504 14.5282L135.345 19.1783C136.827 20.531 140.212 22.1374 144.997 22.1374Z" fill="#F4333D"/>
    <path d="M165.071 22.1374C170.435 22.1374 173.71 19.3474 173.71 14.9932C173.71 11.9495 171.846 9.87814 167.993 9.03267L164.224 8.18721C162.784 7.84902 162.021 7.38401 162.021 6.53855C162.021 5.69308 162.741 5.14353 164.351 5.14353C166.299 5.14353 168.331 6.07354 169.729 7.34174L172.905 2.69167C171.38 1.33893 168.247 0.155273 164.351 0.155273C159.311 0.155273 155.926 2.6494 155.926 6.87673C155.926 9.97678 157.66 12.2032 161.344 13.0486L165.113 13.9364C166.976 14.3591 167.569 14.9087 167.569 15.6273C167.569 16.5573 166.807 17.0646 165.071 17.0646C163.038 17.0646 160.582 16.2191 158.577 14.5282L155.418 19.1783C156.897 20.531 160.285 22.1374 165.071 22.1374Z" fill="#F4333D"/>
    <path d="M189.435 15.025C189.51 13.25 188.959 12.225 187.431 11.45C188.934 10.675 189.51 9.69999 189.435 7.94999L189.284 4.89999C189.209 3.15 190.011 2.625 191.363 2.625C191.689 2.625 192.014 2.675 192.014 2.675V0.074999C192.014 0.074999 191.438 0 190.687 0C187.431 0 185.703 1.35 185.878 4.825L186.029 7.87499C186.104 9.27499 185.277 10.05 184.075 10.2V12.775C185.277 12.95 186.104 13.7 186.029 15.1L185.878 18.15C185.703 21.625 187.431 22.975 190.687 22.975C191.438 22.975 192.014 22.9 192.014 22.9V20.3C192.014 20.3 191.689 20.35 191.363 20.35C190.011 20.35 189.209 19.825 189.284 18.075L189.435 15.025Z" fill="black"/>
    <path d="M203.264 6.47499V8.07499C202.413 6.79999 200.885 6.17499 199.257 6.17499C195.926 6.17499 193.397 8.99999 193.397 12.65C193.397 16.325 195.926 19.125 199.257 19.125C200.885 19.125 202.413 18.425 203.264 17.175V18.825H206.846V6.47499H203.264ZM197.028 12.65C197.028 10.875 198.431 9.44999 200.209 9.44999C201.987 9.44999 203.39 10.875 203.39 12.65C203.39 14.425 201.987 15.85 200.209 15.85C198.431 15.85 197.028 14.425 197.028 12.65Z" fill="black"/>
    <path d="M213.701 24.025V17.225C214.577 18.525 216.08 19.125 217.708 19.125C221.039 19.125 223.568 16.3 223.568 12.65C223.568 8.97499 221.039 6.17499 217.708 6.17499C216.08 6.17499 214.577 6.84999 213.701 8.12499V6.47499H210.069V24.025H213.701ZM219.937 12.65C219.937 14.425 218.534 15.85 216.756 15.85C214.978 15.85 213.576 14.425 213.576 12.65C213.576 10.875 214.978 9.44999 216.756 9.44999C218.534 9.44999 219.937 10.875 219.937 12.65Z" fill="black"/>
    <path d="M229.696 18.825V6.47499H226.04V18.825H229.696ZM229.997 2.9C229.997 1.75 229.045 0.774998 227.868 0.774998C226.691 0.774998 225.739 1.75 225.739 2.9C225.739 4.05 226.691 5.02499 227.868 5.02499C229.045 5.02499 229.997 4.05 229.997 2.9Z" fill="black"/>
    <path d="M234.641 7.94999C234.565 9.72499 235.116 10.75 236.644 11.525C235.141 12.3 234.565 13.275 234.641 15.025L234.791 18.075C234.866 19.825 234.065 20.35 232.712 20.35C232.387 20.35 232.061 20.3 232.061 20.3V22.9C232.061 22.9 232.637 22.975 233.388 22.975C236.644 22.975 238.372 21.625 238.197 18.15L238.047 15.1C237.971 13.7 238.798 12.925 240 12.775V10.2C238.798 10.025 237.971 9.27499 238.047 7.87499L238.197 4.825C238.372 1.35 236.644 0 233.388 0C232.637 0 232.061 0.074999 232.061 0.074999V2.675C232.061 2.675 232.387 2.625 232.712 2.625C234.065 2.625 234.866 3.15 234.791 4.89999L234.641 7.94999Z" fill="black"/>
</svg>
